<svg xmlns="http://www.w3.org/2000/svg" viewBox="0 0 100 100"><path d="M50 0C22.4 0 0 22.4 0 50s22.4 50 50 50 50-22.4 50-50S77.6 0 50 0zm24 50.2c-1.3 3.6-3.2 7-5.8 9.5-2.9 2.8-7.7 5.7-14.3 5.1-3.8-.3-6.1-2-8.2-4.6-1.3 4.5-1.9 9.2-3.6 13.3-1.2 2.9-2.8 5.5-4.6 8-.5.8-1 1.9-2.1 2.1-2.5-10.1 1.1-20.2 3.2-29.1.3-1.1.5-2.3.8-3.5.3-1.1.8-2.4.8-3.3 0-1.1-.7-2.1-.9-3.1-.9-4.7.3-9.5 3.1-11.7 1.3-1.1 4-2 6.2-1.2 4.6 1.7 2.9 8.4 1.5 12.9-.8 2.5-2.1 5.6-2.1 8 .1 3.4 3.4 6.3 7.6 5.7 2.1-.3 3.5-1.2 4.8-2.3 3.9-3.5 6.7-11.4 6.2-19.3s-6-12.9-13.8-13.5c-12-.9-20.5 6.7-21.2 16.9-.3 3.7.6 6.5 2.2 8.6.3.4.9 1 1 1.7.1.9-.9 4.9-1.8 5.1-1.9.5-5.2-2.8-5.9-3.9C25.2 49 24 44.8 24 40.8c0-7.7 3.6-13.3 7.8-17.2 4.5-4.2 10.3-6.5 18.1-6.9 10.9-.6 19.2 4.6 23.2 11.3 1.4 2.3 2.6 5.6 2.8 8.9.4 5.1-.5 9.4-1.9 13.3z"/></svg>